<svg viewBox="0 0 83 82" xmlns="http://www.w3.org/2000/svg" fill-rule="evenodd" clip-rule="evenodd" stroke-linejoin="round" stroke-miterlimit="1.414"><g transform="translate(.267 .19) scale(.0328)"><clipPath id="a"><path d="M0 0h2500v2482H0z"/></clipPath><g clip-path="url(#a)"><path d="M1250.6 2482l-14.32-7.16C677.827 2147.89 255.41 1608.53 83.579 964.162c-27.445-101.428-47.73-205.243-62.05-310.25C8.403 548.904 1.244 442.703.05 336.502c0-17.899-2.386-15.513 14.32-23.865C224.385 193.31 446.333 106.201 681.407 51.311c87.109-20.286 174.218-35.798 262.519-46.538C1065.64-9.546 1187.35-15.512 1310.26-13.126 1379.47-11.933 1447.49-7.16 1515.5 0c342.47 36.991 663.46 139.613 964.16 307.863 4.78 2.387 8.36 4.774 13.13 7.16 4.77 2.387 7.16 5.966 7.16 11.933v17.899c-1.19 62.05-3.58 122.907-8.35 184.957-7.16 88.301-19.1 175.41-35.8 262.519-35.8 187.343-91.88 367.529-169.45 540.549-122.9 275.65-291.15 521.46-503.55 736.25-152.74 155.12-323.38 288.77-511.92 399.74-7.16 4.78-13.12 8.36-20.28 13.13zM114.604 397.359v14.319c0 87.109 5.967 175.41 16.706 261.326 9.546 78.756 22.672 156.318 40.571 233.881 3.58 13.126 7.16 26.252 13.126 39.378 107.394 227.917 355.594 349.627 601.408 293.547 187.343-42.96 340.085-187.35 391.395-372.303 14.32-51.311 19.09-103.815 21.48-156.319 1.19-34.604 4.77-69.209 10.74-103.814 40.57-210.015 180.18-383.039 377.07-465.375 10.74-4.773 22.67-8.353 33.41-13.126 1.19-1.193 3.58-1.193 3.58-3.58-31.02-10.739-215.98-29.831-326.96-32.218-238.65-4.773-472.53 26.252-700.445 95.462-169.444 51.31-329.342 120.52-482.081 208.822zM1874.68 1826.89c5.96-3.57 9.54-8.35 11.93-11.93 47.73-59.66 93.07-121.71 134.84-186.15 149.16-231.49 254.17-480.89 312.64-750.564 20.28-91.882 33.41-183.763 41.76-276.838 5.97-63.244 8.35-126.487 8.35-190.923 0-4.773 0-8.353-1.19-13.126l-17.9-10.74c-48.92-27.445-99.04-53.697-149.16-77.562-73.98-34.605-147.96-65.63-225.53-90.689-94.27-29.831-189.73-33.411-285.19-9.546-273.26 65.63-448.67 334.115-396.16 609.761 28.63 152.738 110.97 272.067 242.23 355.597 8.35 5.96 17.9 10.74 26.25 16.7 96.66 58.47 171.83 138.42 225.53 237.46 57.28 103.82 82.34 215.99 75.18 334.12 1.19 20.28-1.2 41.76-3.58 64.43zm-624.08 533.4c4.77-2.39 10.74-5.97 15.51-9.55 150.35-88.3 288.77-193.31 415.26-312.64 8.35-7.16 14.32-16.7 19.09-26.25 8.35-15.51 16.7-32.22 23.87-47.73 59.66-124.1 72.78-252.97 33.41-386.62-77.57-257.74-325.77-405.71-575.16-374.68-71.6 8.35-137.23 31.02-199.276 66.82-118.133 66.82-244.62 94.27-380.653 81.14-66.823-5.97-130.066-23.87-190.923-50.12-47.73-21.48-93.075-47.73-133.646-79.95-2.386-2.38-5.966-3.58-11.932-7.15 1.193 5.96 2.386 9.54 3.579 11.93 53.697 136.03 119.327 264.9 196.89 387.81 84.722 132.45 181.377 255.36 291.157 367.53 109.781 112.16 230.301 212.4 360.364 299.51 59.67 38.18 115.75 72.79 132.46 79.95z" fill="none"/><path d="M114.604 397.359c152.739-88.302 312.637-157.512 480.888-207.629C824.6 121.713 1057.29 89.495 1295.94 94.268c110.97 2.387 295.93 20.286 326.96 32.219 1.19 2.386-1.2 3.579-3.58 3.579-10.74 4.773-22.68 8.353-33.42 13.126-196.88 82.336-336.5 255.36-377.07 465.375-5.96 34.605-9.54 69.21-10.74 103.815-1.19 52.504-5.96 105.007-21.48 156.318-52.5 184.96-204.045 329.34-391.388 372.3-245.814 56.08-494.014-65.63-601.408-293.544-5.966-13.126-10.739-26.252-13.126-39.378-17.899-77.563-31.025-155.125-40.571-233.881-10.74-87.109-16.706-174.217-16.706-261.326 1.193-5.966 1.193-9.546 1.193-15.512z" fill="#f7a800" fill-rule="nonzero"/><path d="M1874.68 1826.89c2.38-22.67 4.77-42.95 5.96-64.43 5.97-118.13-19.09-230.3-75.17-334.12-53.7-99.04-128.88-177.79-225.53-237.46-8.35-5.96-17.9-10.74-26.25-16.7-132.46-83.53-213.6-201.666-242.24-355.597-51.31-276.839 122.91-544.131 396.17-609.761 96.65-22.672 190.92-20.285 285.19 9.546 77.56 23.866 151.55 56.084 225.53 90.689 51.31 23.865 100.23 50.117 149.16 77.562 5.96 3.58 10.74 5.967 17.9 10.74 0 4.773 1.19 8.353 1.19 13.126 0 63.243-3.58 127.679-8.35 190.923-8.36 93.075-22.68 186.15-41.77 276.838-58.47 269.674-162.28 519.074-312.63 750.564-41.77 64.44-87.11 126.49-134.84 186.15-4.78 3.58-7.16 8.36-14.32 11.93z" fill="#67b2e8" fill-rule="nonzero"/><path d="M1250.6 2360.29c-17.9-7.16-72.79-40.57-131.26-79.95-130.069-87.11-250.59-187.35-360.37-299.51-109.781-112.17-207.629-235.08-291.158-367.53-78.756-122.91-144.386-251.78-196.889-387.81-1.194-3.58-2.387-5.97-3.58-11.93 5.966 3.57 8.353 4.77 11.932 7.15 41.765 32.22 85.916 59.67 133.647 79.95 60.856 26.25 124.1 44.15 190.923 50.12 134.839 13.13 261.326-14.32 380.653-81.14 62.052-34.61 128.872-57.28 199.272-66.82 249.4-31.03 497.6 116.94 575.16 374.68 39.38 132.45 27.45 261.33-33.41 386.62-8.36 16.71-15.51 32.22-23.87 47.73-4.77 9.55-10.74 19.09-19.09 26.25-126.49 119.33-264.91 224.34-415.26 312.64-5.96 3.58-11.93 7.16-16.7 9.55z" fill="#00c4b3" fill-rule="nonzero"/></g></g></svg>